<svg width="33" height="32" viewBox="0 0 33 32" fill="none" xmlns="http://www.w3.org/2000/svg">
<g id="Iconsax/Outline/notification">
<path id="Vector" d="M5.32314 23.5251L5.32317 23.5251L5.32115 23.5198C4.99416 22.6515 5.09843 21.678 5.64099 20.7816L5.64159 20.7806L7.17492 18.2339L7.17532 18.2332C7.36808 17.912 7.53602 17.4637 7.65531 17.0304C7.77467 16.5968 7.85991 16.1252 7.85991 15.7493V11.896C7.85991 7.21214 11.6761 3.396 16.3599 3.396C21.0438 3.396 24.8599 7.21214 24.8599 11.896V15.7493C24.8599 16.1189 24.9453 16.5906 25.0642 17.0261C25.1833 17.4621 25.3507 17.9155 25.5417 18.2419L25.5417 18.2419L25.5445 18.2466L27.064 20.779C27.0641 20.7793 27.0642 20.7795 27.0644 20.7797C27.5595 21.6093 27.6521 22.6114 27.3172 23.5237L27.3171 23.524C27.1543 23.9683 26.8928 24.3698 26.5523 24.6983C26.2118 25.0269 25.8012 25.2739 25.3514 25.4207L25.3514 25.4207L25.3472 25.4221C22.4668 26.3909 19.4141 26.876 16.3599 26.876C13.3066 26.876 10.2545 26.3912 7.36098 25.4226C6.3657 25.0784 5.63828 24.3918 5.32314 23.5251ZM6.50488 21.2914L6.50347 21.2938C6.15697 21.8765 6.02382 22.5568 6.26475 23.1775C6.49046 23.8073 7.03113 24.2415 7.67833 24.4625L7.68003 24.4631C13.3147 26.3646 19.4176 26.3647 25.0522 24.4634C25.6755 24.2553 26.1645 23.7842 26.3902 23.1592C26.612 22.545 26.5633 21.8668 26.2146 21.2909C26.2145 21.2907 26.2143 21.2904 26.2142 21.2902L24.6833 18.7476C24.2216 17.9561 23.8599 16.6184 23.8599 15.736V11.896C23.8599 7.75319 20.5027 4.396 16.3599 4.396C12.2311 4.396 8.85991 7.75257 8.85991 11.896V15.7493C8.85991 16.6304 8.48561 17.9815 8.03676 18.7472L6.50488 21.2914Z" fill="#B73BFF" stroke="#B73BFF"/>
<path id="Vector_2" d="M18.6972 4.7325L18.6972 4.73248L18.6928 4.73127C18.2885 4.61973 17.8952 4.53526 17.5131 4.47866L17.5131 4.47858L17.504 4.4774C16.3062 4.32239 15.1419 4.40606 14.0434 4.73418L14.0434 4.73408L14.0335 4.73725C13.8556 4.79444 13.6582 4.73875 13.5306 4.59781L13.5306 4.5978L13.5288 4.59578C13.4664 4.52753 13.4245 4.44298 13.4082 4.35194C13.3919 4.2609 13.4017 4.16709 13.4365 4.08139L13.4365 4.08141L13.4394 4.07388C13.6684 3.48294 14.0712 2.97534 14.5946 2.61814C15.1181 2.26094 15.7376 2.07095 16.3714 2.07327H16.3732C17.6874 2.07327 18.8331 2.85325 19.3054 4.06992C19.3764 4.26462 19.3358 4.46259 19.2187 4.59452C19.1206 4.69719 18.9779 4.75327 18.8399 4.75327C18.7948 4.75327 18.7477 4.74692 18.6972 4.7325ZM16.3599 29.9119C15.1733 29.9119 14.0202 29.4318 13.1801 28.5917C12.4586 27.8702 12.0027 26.918 11.8883 25.9119H12.8965C13.0053 26.6519 13.352 27.3512 13.8863 27.8855C14.5398 28.539 15.4403 28.9119 16.3599 28.9119C18.1196 28.9119 19.5808 27.6055 19.8242 25.9119H20.8324C20.5834 28.1608 18.6747 29.9119 16.3599 29.9119Z" fill="#B73BFF" stroke="#B73BFF"/>
</g>
</svg>
