<svg width="32" height="32" viewBox="0 0 32 32" fill="none" xmlns="http://www.w3.org/2000/svg">
<g id="Iconsax/Linear/profilecircle">
<path id="Vector" d="M16.1598 17.04C16.0536 17.0266 15.9461 17.0266 15.8398 17.04C14.7091 17.0019 13.6374 16.5258 12.8512 15.7122C12.065 14.8987 11.6259 13.8114 11.6265 12.68C11.6265 10.2666 13.5732 8.30665 15.9998 8.30665C17.1458 8.30466 18.2466 8.75306 19.0649 9.55518C19.8833 10.3573 20.3537 11.4489 20.3747 12.5946C20.3957 13.7404 19.9656 14.8484 19.1772 15.68C18.3887 16.5116 17.3051 17 16.1598 17.04ZM24.9865 25.84C22.5362 28.0921 19.3279 29.3392 15.9998 29.3333C12.5332 29.3333 9.38652 28.0133 7.01318 25.84C7.14652 24.5866 7.94652 23.36 9.37318 22.4C13.0265 19.9733 18.9998 19.9733 22.6265 22.4C24.0532 23.36 24.8532 24.5866 24.9865 25.84Z" stroke="#B73BFF" stroke-width="1.5" stroke-linecap="round" stroke-linejoin="round"/>
<path id="Vector_2" d="M15.9998 29.3333C23.3638 29.3333 29.3332 23.364 29.3332 16C29.3332 8.63596 23.3638 2.66663 15.9998 2.66663C8.63584 2.66663 2.6665 8.63596 2.6665 16C2.6665 23.364 8.63584 29.3333 15.9998 29.3333Z" stroke="#B73BFF" stroke-width="1.5" stroke-linecap="round" stroke-linejoin="round"/>
</g>
</svg>
