<svg width="24" height="25" viewBox="0 0 24 25" fill="none" xmlns="http://www.w3.org/2000/svg">
<g id="vuesax/outline/arrow-2">
<g id="arrow-2">
<path id="Vector" d="M17.2788 11.7032C17.0888 11.7032 16.8988 11.6331 16.7488 11.4831C16.4588 11.1931 16.4588 10.7131 16.7488 10.4231L19.9388 7.23313L16.7488 4.04312C16.4588 3.75312 16.4588 3.27312 16.7488 2.98313C17.0387 2.69313 17.5187 2.69313 17.8087 2.98313L21.5288 6.70316C21.6688 6.84316 21.7488 7.03313 21.7488 7.23313C21.7488 7.43313 21.6688 7.62315 21.5288 7.76315L17.8087 11.4831C17.6587 11.6231 17.4688 11.7032 17.2788 11.7032Z" fill="#B73BFF"/>
<path id="Vector_2" d="M21 7.97656H3C2.59 7.97656 2.25 7.63656 2.25 7.22656C2.25 6.81656 2.59 6.47656 3 6.47656H21C21.41 6.47656 21.75 6.81656 21.75 7.22656C21.75 7.63656 21.41 7.97656 21 7.97656Z" fill="#B73BFF"/>
<path id="Vector_3" d="M6.71997 22.25C6.52997 22.25 6.34 22.18 6.19 22.03L2.46997 18.31C2.32997 18.17 2.25 17.98 2.25 17.78C2.25 17.58 2.32997 17.39 2.46997 17.25L6.19 13.53C6.48 13.24 6.96 13.24 7.25 13.53C7.54 13.82 7.54 14.3 7.25 14.59L4.06 17.78L7.25 20.9699C7.54 21.2599 7.54 21.74 7.25 22.03C7.11 22.18 6.91997 22.25 6.71997 22.25Z" fill="#B73BFF"/>
<path id="Vector_4" d="M21 18.5234H3C2.59 18.5234 2.25 18.1834 2.25 17.7734C2.25 17.3634 2.59 17.0234 3 17.0234H21C21.41 17.0234 21.75 17.3634 21.75 17.7734C21.75 18.1834 21.41 18.5234 21 18.5234Z" fill="#B73BFF"/>
</g>
</g>
</svg>
