<svg width="41" height="149" viewBox="0 0 41 149" fill="none" xmlns="http://www.w3.org/2000/svg">
<path fill-rule="evenodd" clip-rule="evenodd" d="M-36.9663 135.555V148.924C-28.7366 149.296 -20.4418 148.304 -12.4264 145.927C4.09866 141.028 18.4139 130.551 28.08 116.281C37.7462 102.01 42.1652 84.8298 40.5843 67.6665C39.0033 50.5032 31.52 34.4191 19.4096 22.1546C7.29922 9.89017 -8.68907 2.20427 -25.831 0.406486C-29.5484 0.0166225 -33.2701 -0.0911063 -36.9663 0.0759988V13.4455C-33.7346 13.2674 -30.4771 13.3453 -27.2238 13.6865C-13.1542 15.1621 -0.0315819 21.4704 9.90824 31.5367C19.8481 41.6029 25.99 54.8043 27.2877 68.8913C28.5853 82.9784 24.9583 97.0796 17.0246 108.792C9.09094 120.505 -2.65849 129.104 -16.2217 133.125C-22.9963 135.134 -30.0141 135.938 -36.9663 135.555Z" fill="#D8E8E7"/>
</svg>
