<svg width="63" height="148" viewBox="0 0 63 148" fill="none" xmlns="http://www.w3.org/2000/svg">
<path fill-rule="evenodd" clip-rule="evenodd" d="M77.0332 134.049V147.27C68.8949 147.638 60.6923 146.657 52.7659 144.307C36.4243 139.462 22.2681 129.101 12.7093 114.99C3.15045 100.878 -1.21954 83.8878 0.343897 66.9151C1.90733 49.9424 9.30746 34.0369 21.2834 21.9086C33.2593 9.78035 49.0701 2.17979 66.0217 0.401972C69.6977 0.0164416 73.3781 -0.0900926 77.0332 0.0751501V13.2962C73.8374 13.1201 70.6162 13.1971 67.399 13.5345C53.4857 14.9937 40.5087 21.232 30.6793 31.1865C20.8498 41.1409 14.776 54.1957 13.4928 68.1263C12.2096 82.057 15.7964 96.0016 23.6419 107.584C31.4875 119.167 43.1065 127.671 56.5191 131.647C63.2184 133.633 70.1582 134.428 77.0332 134.049Z" fill="#D8E8E7"/>
</svg>
